<svg width="900" height="620" viewBox="0 0 900 620" fill="none" xmlns="http://www.w3.org/2000/svg">
  <rect width="900" height="620" rx="48" fill="#F8F2E9"/>
  <circle cx="142" cy="126" r="78" fill="#DCE8D5"/>
  <circle cx="760" cy="486" r="112" fill="#F2D6B3"/>
  <rect x="90" y="356" width="720" height="144" rx="28" fill="#C98C5A"/>
  <rect x="90" y="330" width="720" height="38" rx="19" fill="#E3B07B"/>
  <rect x="112" y="250" width="116" height="80" rx="22" fill="#FFFDFC"/>
  <rect x="248" y="236" width="136" height="94" rx="22" fill="#F7FBF7"/>
  <rect x="408" y="208" width="168" height="122" rx="24" fill="#F1F5EF"/>
  <rect x="602" y="226" width="126" height="104" rx="24" fill="#FFF8F0"/>
  <circle cx="470" cy="168" r="44" fill="#F4D8BA"/>
  <path d="M412 286C412 239.056 450.056 201 497 201H489C535.944 201 574 239.056 574 286V330H412V286Z" fill="#517A62"/>
  <path d="M543 248C576 234 604 236 627 252" stroke="#517A62" stroke-width="14" stroke-linecap="round"/>
  <path d="M624 252L700 262" stroke="#517A62" stroke-width="14" stroke-linecap="round"/>
  <path d="M628 330L606 414" stroke="#6C8F78" stroke-width="16" stroke-linecap="round"/>
  <path d="M492 330L468 422" stroke="#6C8F78" stroke-width="16" stroke-linecap="round"/>
  <path d="M468 422L428 500" stroke="#6C8F78" stroke-width="16" stroke-linecap="round"/>
  <path d="M606 414L646 500" stroke="#6C8F78" stroke-width="16" stroke-linecap="round"/>
  <path d="M646 500H698" stroke="#3A4E44" stroke-width="18" stroke-linecap="round"/>
  <path d="M428 500H372" stroke="#3A4E44" stroke-width="18" stroke-linecap="round"/>
  <path d="M706 262H788" stroke="#EFC18A" stroke-width="12" stroke-linecap="round"/>
  <path d="M742 226V298" stroke="#EFC18A" stroke-width="12" stroke-linecap="round"/>
</svg>
