<svg width="900" height="620" viewBox="0 0 900 620" fill="none" xmlns="http://www.w3.org/2000/svg">
  <rect width="900" height="620" rx="48" fill="#F8F1E7"/>
  <circle cx="732" cy="126" r="72" fill="#F2C48D"/>
  <circle cx="164" cy="500" r="110" fill="#D9E8D0"/>
  <rect x="154" y="112" width="350" height="392" rx="32" fill="#FFFDFC"/>
  <rect x="194" y="170" width="140" height="18" rx="9" fill="#D7A86E"/>
  <rect x="194" y="224" width="34" height="34" rx="10" fill="#D9E8D0"/>
  <path d="M204 241L216 253L246 223" stroke="#3C6E57" stroke-width="10" stroke-linecap="round" stroke-linejoin="round"/>
  <rect x="256" y="230" width="188" height="14" rx="7" fill="#E2DDD6"/>
  <rect x="256" y="258" width="132" height="14" rx="7" fill="#ECE7E0"/>
  <rect x="194" y="300" width="34" height="34" rx="10" fill="#D9E8D0"/>
  <path d="M204 317L216 329L246 299" stroke="#3C6E57" stroke-width="10" stroke-linecap="round" stroke-linejoin="round"/>
  <rect x="256" y="306" width="170" height="14" rx="7" fill="#E2DDD6"/>
  <rect x="256" y="334" width="112" height="14" rx="7" fill="#ECE7E0"/>
  <rect x="194" y="376" width="34" height="34" rx="10" fill="#D9E8D0"/>
  <path d="M204 393L216 405L246 375" stroke="#3C6E57" stroke-width="10" stroke-linecap="round" stroke-linejoin="round"/>
  <rect x="256" y="382" width="154" height="14" rx="7" fill="#E2DDD6"/>
  <rect x="256" y="410" width="126" height="14" rx="7" fill="#ECE7E0"/>
  <rect x="520" y="150" width="214" height="274" rx="36" fill="#FFFFFF"/>
  <circle cx="627" cy="222" r="48" fill="#F5D6B0"/>
  <path d="M576 334C576 294.788 607.788 263 647 263H607C646.212 263 678 294.788 678 334V357H576V334Z" fill="#3C6E57"/>
  <rect x="566" y="372" width="122" height="18" rx="9" fill="#E2DDD6"/>
  <rect x="596" y="404" width="62" height="18" rx="9" fill="#D7A86E"/>
</svg>
